<svg xmlns="http://www.w3.org/2000/svg" viewBox="0 0 57 57" width="512" height="512"><path data-original="#E7ECED" fill="#e7eced" d="M.5 18h56v39H.5z"/><path data-original="#23A24D" data-old_color="#4588f2" fill="#4588f2" d="M41.5 5H.5v13h56V5z"/><circle cx="19.5" cy="9" r="2" data-original="#38454F" data-old_color="#0A1924" fill="#0a1824"/><circle cx="25.5" cy="9" r="2" data-original="#38454F" data-old_color="#0A1924" fill="#0a1824"/><circle cx="31.5" cy="9" r="2" data-original="#38454F" data-old_color="#0A1924" fill="#0a1824"/><circle cx="37.5" cy="9" r="2" data-original="#38454F" data-old_color="#0A1924" fill="#0a1824"/><path d="M37.5 0c-1.13 0-2.162.391-3 1.025.534.405.979.912 1.315 1.495A2.98 2.98 0 0 1 37.5 2c1.654 0 3 1.346 3 3s-1.346 3-3 3a1 1 0 1 0 0 2c2.757 0 5-2.243 5-5s-2.243-5-5-5z" data-original="#AFB6BB" data-old_color="#000D16" fill="#000c16"/><path d="M33.185 2.52A4.936 4.936 0 0 0 32.5 5h2c0-1.03-.522-1.939-1.315-2.48zm-6 0A4.936 4.936 0 0 0 26.5 5h2c0-1.03-.522-1.939-1.315-2.48z" data-original="#839594" class="active-path" data-old_color="#00211E" fill="#001614"/><path d="M35.815 2.52A5.027 5.027 0 0 0 34.5 1.025C33.662.391 32.63 0 31.5 0s-2.162.391-3 1.025c.534.405.979.912 1.315 1.495.481-.328 1.061-.52 1.685-.52s1.204.192 1.685.52A2.999 2.999 0 0 1 31.5 8a1 1 0 1 0 0 2c2.757 0 5-2.243 5-5 0-.907-.261-1.746-.685-2.48z" data-original="#AFB6BB" data-old_color="#000D16" fill="#000c16"/><path d="M21.185 2.52A4.936 4.936 0 0 0 20.5 5h2c0-1.03-.522-1.939-1.315-2.48z" data-original="#839594" class="active-path" data-old_color="#00211E" fill="#001614"/><path d="M29.815 2.52A5.027 5.027 0 0 0 28.5 1.025C27.662.391 26.63 0 25.5 0s-2.162.391-3 1.025c.534.405.979.912 1.315 1.495.481-.328 1.061-.52 1.685-.52s1.204.192 1.685.52A2.999 2.999 0 0 1 25.5 8a1 1 0 1 0 0 2c2.757 0 5-2.243 5-5 0-.907-.261-1.746-.685-2.48z" data-original="#AFB6BB" data-old_color="#000D16" fill="#000c16"/><path d="M23.815 2.52A5.027 5.027 0 0 0 22.5 1.025 4.954 4.954 0 0 0 19.5 0c-2.757 0-5 2.243-5 5h2c0-1.654 1.346-3 3-3a2.98 2.98 0 0 1 1.685.52A2.999 2.999 0 0 1 19.5 8a1 1 0 1 0 0 2c2.757 0 5-2.243 5-5 0-.907-.261-1.746-.685-2.48z" data-original="#AFB6BB" data-old_color="#000D16" fill="#000c16"/><path d="M18.5 51a1 1 0 0 1-1-1V24a1 1 0 1 1 2 0v26a1 1 0 0 1-1 1z" data-original="#556080" data-old_color="#4588f2" fill="#4588f2"/><path d="M22.5 51h-8a1 1 0 1 1 0-2h8a1 1 0 1 1 0 2zm-10-20a.999.999 0 0 1-.707-1.707l6-6a.999.999 0 1 1 1.414 1.414l-6 6A.997.997 0 0 1 12.5 31zm25 6c-3.86 0-7-3.141-7-7s3.14-7 7-7 7 3.141 7 7-3.14 7-7 7zm0-12c-2.757 0-5 2.243-5 5s2.243 5 5 5 5-2.243 5-5-2.243-5-5-5z" data-original="#556080" data-old_color="#4588f2" fill="#4588f2"/><path d="M37.5 51c-3.86 0-7-3.141-7-7a1 1 0 1 1 2 0c0 2.757 2.243 5 5 5s5-2.243 5-5V30a1 1 0 1 1 2 0v14c0 3.859-3.14 7-7 7z" data-original="#556080" data-old_color="#4588f2" fill="#4588f2"/></svg>