<svg xmlns="http://www.w3.org/2000/svg" viewBox="0 0 294.843 294.843" width="512" height="512"><path d="M147.421 0c-52.62 0-95.43 42.81-95.43 95.43 0 47.057 32.64 108.738 60.022 152.195a5.999 5.999 0 1 0 10.152-6.396C74.084 164.917 63.992 119.822 63.992 95.43c0-46.003 37.426-83.43 83.43-83.43s83.43 37.426 83.43 83.43c0 74.708-87.296 188.604-88.178 189.745a6 6 0 0 0 9.497 7.336c3.703-4.792 90.682-118.277 90.682-197.082C242.851 42.81 200.042 0 147.421 0z" data-original="#000000" class="active-path" data-old_color="#00aeef" fill="#00aeef"/><path d="M147.421 65a6 6 0 0 0 0-12c-23.396 0-42.43 19.034-42.43 42.43s19.034 42.43 42.43 42.43 42.43-19.034 42.43-42.43c0-9.344-2.979-18.208-8.617-25.635a6 6 0 0 0-9.558 7.256c4.04 5.321 6.175 11.677 6.175 18.379 0 16.779-13.651 30.43-30.43 30.43s-30.43-13.651-30.43-30.43S130.643 65 147.421 65z" data-original="#000000" class="active-path" data-old_color="#00aeef" fill="#00aeef"/></svg>