<svg xmlns="http://www.w3.org/2000/svg" viewBox="0 0 282.85 42.69"><defs><style>.cls-1{fill:#fff}.cls-3{fill:#797979}</style></defs><g id="Layer_2" data-name="Layer 2"><g id="Layer_1-2" data-name="Layer 1"><g id="Owl"><path class="cls-1" d="M30.37 25.7a12.7 12.7 0 0 0 23.79-8.92A12.57 12.57 0 0 0 37.8 9.34a12.92 12.92 0 0 0-7.43 16.36z"/><circle class="cls-1" cx="14.23" cy="21.24" r="12.74"/><path d="M16.35 21A2.34 2.34 0 1 1 14 18.69 2.36 2.36 0 0 1 16.35 21z" fill="#5e5e5e"/><path class="cls-3" d="M44.6 21a2.34 2.34 0 1 1-2.34-2.34A2.36 2.36 0 0 1 44.6 21z"/><path d="M7 21a7 7 0 1 0 7-7 7.07 7.07 0 0 0-7 7zm2.34 0A4.67 4.67 0 1 1 14 25.7 4.71 4.71 0 0 1 9.34 21zm25.91 0a7 7 0 1 0 7-7 7.07 7.07 0 0 0-7 7zm2.55 0a4.67 4.67 0 1 1 4.67 4.67A4.58 4.58 0 0 1 37.8 21z"/><path d="M32.92 27.4a10.83 10.83 0 0 0 4.67 4 11.25 11.25 0 0 0 8.71.42 11 11 0 0 0 6.58-14.44 11 11 0 0 0-14.44-6.58 11.64 11.64 0 0 0-6.37 5.95 10.86 10.86 0 0 0-.85 5.73" fill="none"/><path d="M37.38 8.07a11.09 11.09 0 0 1 4.46-.85A32.07 32.07 0 0 0 28 4.46a32.07 32.07 0 0 0-13.8 2.76A14.1 14.1 0 0 1 28 20.39a12.8 12.8 0 0 1 1.27-4.88 14.52 14.52 0 0 1 8.07-7.43z" fill="#dadada"/><path d="M53.73 12.74A19.49 19.49 0 0 1 56.49 7h-9.34a34.58 34.58 0 0 0-18.91-5.3A35.53 35.53 0 0 0 8.92 7L0 7.22A16.74 16.74 0 0 1 2.76 13 13.86 13.86 0 0 0 0 21.24a14.2 14.2 0 0 0 25.27 8.92l3 4.46 3-4.46a13.47 13.47 0 0 0 5.1 4 14.67 14.67 0 0 0 10.83.42 14.23 14.23 0 0 0 8.28-18.26 8.08 8.08 0 0 0-1.7-3.61zM28.24 4.46A32.07 32.07 0 0 1 42 7.22a11.09 11.09 0 0 0-4.46.85 13 13 0 0 0-7.86 7.43 18.37 18.37 0 0 0-1.27 4.88A14.26 14.26 0 0 0 14.65 7.22a30.48 30.48 0 0 1 13.59-2.76zm-4.67 23.15a11.47 11.47 0 0 1-9.34 4.88 11.26 11.26 0 0 1 0-22.51 11.19 11.19 0 0 1 11.25 11.26 1.91 1.91 0 0 1-.21 1.06 12 12 0 0 1-1.7 5.31zm22.73 4.24a11.29 11.29 0 0 1-8.71-.42 10.83 10.83 0 0 1-4.67-4 23.16 23.16 0 0 1-1.27-2.34A13 13 0 0 1 31 22.3a10.56 10.56 0 0 1 .85-5.73 11.64 11.64 0 0 1 6.37-5.95 11.25 11.25 0 0 1 14.45 6.58 11 11 0 0 1-6.37 14.65z"/></g><g id="Netherlands"><path class="cls-3" d="M203 4.25a2.76 2.76 0 0 0 5.52 0 2.76 2.76 0 0 0-5.52 0z"/><path d="M73.27 4L69 5.52v5.31h-4.65v3.61h4.46v11.68c0 5.52 1.91 7.86 6.58 7.86a16.51 16.51 0 0 0 3.4-.42H79v-3.83h-.21a12.22 12.22 0 0 1-2.12.42c-2.12 0-3-1.27-3-4.46V14.44H79v-3.61h-5.31v-7l-.42.17zM87.5 14.44v-3.61h-4.25v22.72h4.67V22.09c0-4.67 1.91-7.43 5.73-7.43a5.28 5.28 0 0 1 1.7.21h.21v-4.25l-1.91-.21a6.91 6.91 0 0 0-6.16 4zm32.92-4.25a9 9 0 0 0-7.65 4.25v-3.61h-4.25v31.86h4.67V30.37a8.1 8.1 0 0 0 7 3.4c5.73 0 9.56-4.67 9.56-12.1.01-6.8-3.82-11.48-9.34-11.48zm-1.27 20c-3.61 0-5.95-3.19-5.95-8.07s2.34-7.86 6.16-7.86c3.61 0 5.73 3 5.73 7.86-.21 4.88-2.34 8.07-5.95 8.07z"/><path class="cls-3" d="M143.14 10.19a14.24 14.24 0 0 0-7.43 1.7h-.21v3.82h.42a12.17 12.17 0 0 1 6.16-1.91c3.4 0 5.31 1.91 5.31 5.31v.21h-2.55c-7.65 0-11.68 2.76-11.68 7.65 0 4 3 6.8 7.22 6.8a9.06 9.06 0 0 0 7.43-3.61v3.19h4.25v-13.6c-.42-6.37-3.19-9.56-8.92-9.56zm4 13.8c0 3.82-2.34 6.37-5.95 6.37a3.63 3.63 0 0 1-3.82-3.61c0-2.76 2.55-4.25 7.43-4.25h2.34V24zm24-24V13.8a8.29 8.29 0 0 0-7-3.61c-5.52 0-9.34 4.67-9.34 11.47 0 7 3.82 12.1 9.34 12.1a8.38 8.38 0 0 0 7.43-4.25v3.82h4.25V0zm-5.95 29.94c-3.4 0-5.73-3-5.73-8.07 0-4.88 2.12-8.07 5.52-8.07 3.82 0 6.16 3 6.16 8.07s-2.31 8.08-5.92 8.08zm31-19.11L189.64 24l-5.94-13.17h-5.1l11 22.72 11.47-22.72h-4.88zm11.47 0h-4.25v22.73h4.67V10.83zm5.73 5.73c0 3.19 2.12 4.88 6.16 6.8 2.55 1.27 3.82 1.91 3.82 3.82s-1.7 3-4.25 3a12.14 12.14 0 0 1-5.73-1.49l-.42-.21-.21 4h.24a14.09 14.09 0 0 0 5.95 1.06c5.52 0 9.34-2.76 9.34-6.8 0-3.4-2.34-5.31-6.37-7-3-1.27-4-2.12-4-3.61 0-1.27 1.27-2.34 3.4-2.34a12.39 12.39 0 0 1 5.52 1.27l.42.21.21-3.82h-.21a17.5 17.5 0 0 0-5.52-.85c-4.88 0-8.28 2.34-8.28 5.95zm29.31-6.37c-7 0-11.26 4.46-11.26 11.89S235.73 34 242.74 34 254 29.52 254 22.09s-4.26-11.9-11.26-11.9zm0 20c-3.82 0-6.37-3.19-6.37-8.07s2.55-8.28 6.37-8.28 6.37 3.19 6.37 8.28c.04 4.89-2.3 8.05-6.33 8.05zm19.75-15.72v-3.63h-4.25v22.72h4.67V22.09c0-4.67 1.91-7.43 5.73-7.43a5.28 5.28 0 0 1 1.7.21h.21l.21-4.46-1.91-.21a7.31 7.31 0 0 0-6.37 4.25z"/><path d="M103.85 10.83H99.6v22.72h4.46V10.83zM99 4.25a2.76 2.76 0 1 0 5.52 0 2.76 2.76 0 1 0-5.52 0z"/><path class="cls-3" d="M278.64 10.72q1.64 0 1.64 1.09a1.16 1.16 0 0 1-.91 1.09l.91 1.64h-1.09l-.73-1.46h-.18v1.46h-1.09v-3.82h1.46zm-.36 1.64h.36c.55 0 .73-.18.73-.55s-.18-.55-.73-.55h-.36z"/><path class="cls-3" d="M278.63 17a4.22 4.22 0 1 1 4.22-4.22 4.23 4.23 0 0 1-4.22 4.22zm0-7.65a3.43 3.43 0 1 0 3.43 3.43 3.43 3.43 0 0 0-3.43-3.4z"/></g></g></g></svg>