<svg xmlns="http://www.w3.org/2000/svg" viewBox="0 0 192.26 60"><g data-name="Layer 2"><path d="M101.33 15.08a3.9 3.9 0 1 1-3.9-3.9 3.9 3.9 0 0 1 3.9 3.9zm-16.1 7.87v1a7.5 7.5 0 0 0-5.83-2.4 11.5 11.5 0 0 0-11.65 11.84 11.5 11.5 0 0 0 11.66 11.9 7.29 7.29 0 0 0 5.83-2.46v1a.82.82 0 0 0 .84.84h4.86V22.1h-4.87a.86.86 0 0 0-.84.84zm0 14.47a6 6 0 0 1-4.86 2.46c-3.84 0-6.79-2.4-6.79-6.49s2.94-6.49 6.79-6.49a6.13 6.13 0 0 1 4.86 2.46v8zm9.31-15.32h5.77v22.58h-5.77V22.1zm86.13-.6a7.5 7.5 0 0 0-5.83 2.4V11.23h-5.77v33.45h4.87a.86.86 0 0 0 .84-.84v-1a7.44 7.44 0 0 0 5.83 2.46 11.53 11.53 0 0 0 11.65-11.89 11.52 11.52 0 0 0-11.59-11.91zm-1 18.32a5.88 5.88 0 0 1-4.87-2.46v-8a6.52 6.52 0 0 1 4.87-2.46c3.84 0 6.79 2.4 6.79 6.49s-2.94 6.49-6.79 6.49zm-13.63-8.53v13.45h-5.77V32c0-3.72-1.2-5.23-4.44-5.23a6.45 6.45 0 0 0-4.68 2.22v15.69h-5.77V22.1H150a.86.86 0 0 1 .84.84v1a8.27 8.27 0 0 1 6.13-2.4 9.35 9.35 0 0 1 6.31 2.16c2 1.68 2.82 3.84 2.82 7.63zm-34.62-9.79a7.5 7.5 0 0 0-5.83 2.4V11.23h-5.77v33.45h4.87a.86.86 0 0 0 .84-.84v-1a7.44 7.44 0 0 0 5.83 2.46A11.53 11.53 0 0 0 143 33.39a11.45 11.45 0 0 0-11.58-11.89zm-1 18.32a5.88 5.88 0 0 1-4.86-2.46v-8a6.52 6.52 0 0 1 4.86-2.46c3.84 0 6.79 2.4 6.79 6.49s-2.94 6.49-6.79 6.49zM114.84 21.5a9.21 9.21 0 0 1 2.64.3v5.35s-4.81-1.62-7.81 1.8v15.8h-5.77V22.1h4.87a.86.86 0 0 1 .84.84v1a7.89 7.89 0 0 1 5.23-2.4zM55 42.64c-.3-.72-.6-1.5-.9-2.16-.48-1.08-1-2.1-1.38-3.06l-.06-.06c-4.14-9-8.59-18.14-13.27-27.15l-.18-.36c-.48-.9-1-1.86-1.44-2.82a17.27 17.27 0 0 0-2.16-3.3A9.7 9.7 0 0 0 27.93 0a10.08 10.08 0 0 0-7.69 3.6 20.71 20.71 0 0 0-2.16 3.3c-.48 1-1 1.92-1.44 2.82l-.18.36c-4.62 9-9.13 18.14-13.27 27.15l-.06.12c-.42 1-.9 2-1.38 3.06q-.45 1-.9 2.16a13.49 13.49 0 0 0-.72 6.49A12.76 12.76 0 0 0 7.93 59a12.34 12.34 0 0 0 4.86 1 13.64 13.64 0 0 0 1.56-.12 15.86 15.86 0 0 0 6-2 30.41 30.41 0 0 0 7.45-6.25 31.55 31.55 0 0 0 7.45 6.25 15.86 15.86 0 0 0 6 2 13.66 13.66 0 0 0 1.56.12 12.13 12.13 0 0 0 4.87-1 12.74 12.74 0 0 0 7.81-10 11.35 11.35 0 0 0-.49-6.36zm-27.13 3.13c-3.24-4.08-5.35-7.93-6.07-11.17a9.68 9.68 0 0 1-.18-3.66 5.82 5.82 0 0 1 1-2.52 6.38 6.38 0 0 1 5.29-2.64 6.15 6.15 0 0 1 5.29 2.64 5.82 5.82 0 0 1 1 2.52 9.66 9.66 0 0 1-.18 3.66c-.72 3.18-2.82 7-6.07 11.17zm24 2.82a8.92 8.92 0 0 1-5.47 7 9.09 9.09 0 0 1-4.56.6 11.82 11.82 0 0 1-4.56-1.56 28.05 28.05 0 0 1-6.85-5.83c4-4.87 6.37-9.31 7.27-13.27a15.05 15.05 0 0 0 .3-5.11 9.75 9.75 0 0 0-1.62-4.08 10.12 10.12 0 0 0-8.47-4.26 10.28 10.28 0 0 0-8.47 4.26 9.75 9.75 0 0 0-1.62 4.08 12.48 12.48 0 0 0 .3 5.11c.9 4 3.36 8.47 7.27 13.33a27 27 0 0 1-6.85 5.83 11.82 11.82 0 0 1-4.56 1.56 9.61 9.61 0 0 1-4.56-.6 8.92 8.92 0 0 1-5.47-7 9.94 9.94 0 0 1 .5-4.65c.18-.6.48-1.2.78-1.92.42-1 .9-2 1.38-3l.06-.12C10.82 30 15.26 20.84 19.89 12l.18-.36c.48-.9 1-1.86 1.44-2.76a13.18 13.18 0 0 1 1.68-2.64 6.31 6.31 0 0 1 9.61 0 13.2 13.2 0 0 1 1.68 2.64c.48.9 1 1.86 1.44 2.76l.18.36c4.56 8.95 9 18.08 13.15 27 .48 1 .9 2 1.38 3 .3.72.6 1.32.78 1.92a10.15 10.15 0 0 1 .42 4.62z" fill="#8c8c8c" fill-rule="evenodd" data-name="Layer 1"/></g></svg>