<svg xmlns="http://www.w3.org/2000/svg" viewBox="0 0 263.88 43.89"><defs><style>.cls-1{fill:#3c3c3c}.cls-2{fill:#8c8c8c}</style></defs><g id="Layer_2" data-name="Layer 2"><g id="Layer_1-2" data-name="Layer 1"><path class="cls-1" d="M103.5 4a4 4 0 0 1 8 0 4 4 0 0 1-8 0"/><path class="cls-2" d="M166.78 30.76c0-3.18 3.66-5.49 7-2.93 2.5 3.31.19 6.94-3 6.94a4 4 0 0 1-4-4"/><path class="cls-1" d="M37.68 29c-3.45 0-5.85-2.74-5.85-6.66s2.4-6.66 5.86-6.66 5.9 2.74 5.9 6.66S41.21 29 37.68 29zm0-19.18a12.15 12.15 0 0 0-12.61 12.53 12.15 12.15 0 0 0 12.61 12.52c7.34 0 12.66-5.26 12.66-12.51S45 9.84 37.68 9.84M95.73 23a6 6 0 0 0-1-1.35l-.22-.23.23-.22a10.05 10.05 0 0 0 1-1.26l6.45-9.59h-7.77l-4.85 7.5a1.89 1.89 0 0 1-1.66.6h-1.1V4.26C86.81 1.42 85 1 83.14 1h-3.27v33.5h6.94v-10h.65c.79 0 1.33.09 1.58.52l3.83 7.22c1.07 2 2.13 2.29 4.14 2.29h5.32l-4-6.55-2.63-5m33.68-13.2a9.44 9.44 0 0 0-7 2.9l-.42.42-.15-.58c-.37-1.42-1.62-2.2-3.5-2.2h-3.11v24.17h6.89V23.35a9 9 0 0 1 .43-2.9 5.66 5.66 0 0 1 5.58-4.23c2.15 0 3 1.14 3 4.07v14.2h6.9V19.12c0-6.11-3-9.33-8.62-9.33m-21.82.55h-3.27V34.5h6.86V14c0-2.47-1.18-3.67-3.63-3.67M64.74 29c-3.45 0-5.86-2.74-5.86-6.66s2.4-6.66 5.86-6.66 5.9 2.74 5.9 6.66S68.27 29 64.74 29zm0-19.18c-7.31 0-12.62 5.26-12.62 12.52s5.31 12.52 12.62 12.52 12.66-5.25 12.66-12.5S72.07 9.84 64.74 9.84"/><path class="cls-2" d="M212.42 29c-3.45 0-5.86-2.74-5.86-6.66s2.41-6.66 5.86-6.66 5.9 2.74 5.9 6.66-2.37 6.66-5.9 6.66zm0-19.18c-7.31 0-12.62 5.26-12.62 12.52s5.3 12.52 12.62 12.52 12.66-5.26 12.66-12.51-5.33-12.51-12.66-12.51"/><path class="cls-1" d="M152.56 28c-3.77 0-5.11-3.28-5.11-6.37 0-1.36.34-5.78 4.75-5.78 2.19 0 5.1.63 5.1 6 0 5.04-2.58 6.15-4.74 6.15zm8.32-17.69a3 3 0 0 0-2.82 1.47l-.19.37-.32-.28a9.39 9.39 0 0 0-6.34-2.1c-6.44 0-10.78 4.84-10.78 12S144.91 34 151.33 34a8.48 8.48 0 0 0 5.3-1.55l.53-.4v.67c0 3.23-2.09 5-5.87 5a13.91 13.91 0 0 1-4.64-.85 2 2 0 0 0-2.91 1.39l-.55 1.35-.77 2 .48.25a18.84 18.84 0 0 0 8.43 2.05c5.87 0 12.72-3 12.72-11.45V10.29h-3.2M12 28.74H6.42V22c0-1.44.56-2.18 1.78-2.35H12a4.2 4.2 0 0 1 4.5 4.51 4.17 4.17 0 0 1-4.5 4.58zM6.42 10.66V8.89c0-1.54.65-2.28 2.09-2.37h2.87a3.62 3.62 0 0 1 3.94 3.94c0 1.88-1 4.07-3.85 4.07h-5zm12.77 6.69l-1-.57.89-.76a8.09 8.09 0 0 0 2.75-6.31c0-5.26-4.08-8.66-10.39-8.66h-8A3.52 3.52 0 0 0 0 4.52v29.86h11.56c7 0 11.55-3.82 11.55-9.74a8.13 8.13 0 0 0-3.92-7.3"/><path class="cls-2" d="M255.86 9.86a9.5 9.5 0 0 0-7.4 3.58l-.5.63-.39-.71c-1.28-2.36-3.47-3.5-6.57-3.5a8.74 8.74 0 0 0-6.35 2.85l-.65.71-.25-.93c-.36-1.34-1.56-2.08-3.36-2.08h-2.9v24.08h6.58V23.86a11.89 11.89 0 0 1 .35-2.82c.63-2.57 2.35-5.33 5.26-5.06 1.79.17 2.66 1.56 2.66 4.23v14.28H249V23.86a9.64 9.64 0 0 1 .37-2.91c.53-2.45 2.33-5 5.13-5 2 0 2.78 1.15 2.78 4.23v14.31h6.61V19.12c0-6.14-2.7-9.26-8-9.26M196 26.13s-2.85 3-6.58 3c-3.4 0-6.83-2.08-6.83-6.73 0-4 2.66-6.82 6.47-6.82 1.23 0 2.64.44 2.86 1.19v.13a2.42 2.42 0 0 0 2.35 1.78h3.6v-3.15c0-4.16-5.29-5.66-8.84-5.66-7.61 0-13.13 5.3-13.13 12.59S181.39 35 188.92 35A13.66 13.66 0 0 0 199 30.7l.19-.23-2.85-4.73-.38.4"/></g></g></svg>