<svg xmlns="http://www.w3.org/2000/svg" viewBox="0 0 257 50"><defs><style>.cls-2{fill:#626262}.cls-3{fill:#fff}</style></defs><g id="Layer_2" data-name="Layer 2"><g id="Layer_1-2" data-name="Layer 1"><path d="M63.79 13.72v11.5h13.27v-11.5h3.54V41.3h-3.54V28.47H63.79V41.3h-3.54V13.72zm39.82 17.55c0 7.37-5 10.47-9.88 10.47-5.31 0-9.44-4-9.44-10.18 0-6.64 4.28-10.47 9.73-10.47 5.76 0 9.59 4.13 9.59 10.18zM88 31.42c0 4.28 2.51 7.67 6 7.67s6-3.24 6-7.67c0-3.39-1.62-7.67-5.9-7.67S88 27.73 88 31.42zm19.17-4.57c0-2.06 0-3.69-.15-5.31h3.1l.15 3.24h.29a6.88 6.88 0 0 1 6.19-3.69 5.9 5.9 0 0 1 5.6 4 6.19 6.19 0 0 1 2.21-2.51 6.88 6.88 0 0 1 4.44-1.34c2.65 0 6.49 1.77 6.49 8.55V41.3h-3.54V30.09c0-3.83-1.33-6-4.28-6a4.61 4.61 0 0 0-4.28 3.24 6.34 6.34 0 0 0-.29 1.77v12.2h-3.54V29.5c0-3.1-1.33-5.46-4.13-5.46a4.92 4.92 0 0 0-4.43 3.54 7.4 7.4 0 0 0-.29 1.77V41.3h-3.54V26.84zm35.25 5c.15 5 3.24 6.93 6.93 6.93a13.53 13.53 0 0 0 5.6-1l.59 2.65a16.15 16.15 0 0 1-6.64 1.33c-6.19 0-9.88-4.13-9.88-10.18s3.54-10.91 9.44-10.91c6.64 0 8.41 5.75 8.41 9.44 0 .74-.15 1.33-.15 1.77H142.4zm10.77-2.65c0-2.36-1-5.9-5-5.9-3.69 0-5.31 3.39-5.6 5.9h10.62z" fill="#1f1f1f"/><path class="cls-2" d="M165 32.45l-3 8.85h-3.69l9.59-28h4.42l9.59 28h-3.83l-2.95-8.85zm9.14-2.8l-2.8-8.11c-.59-1.77-1-3.54-1.47-5.16h-.15c-.44 1.62-.88 3.39-1.47 5l-2.8 8.11c.26.16 8.66.16 8.66.16zm11.21-8.55L188 31.27a55.67 55.67 0 0 1 1.47 6.34h.15c.44-2.06 1.18-4.13 1.77-6.34l3.24-10.18h3.1l3.1 10q1.11 3.54 1.77 6.64h.15a41.68 41.68 0 0 1 1.62-6.49l2.8-10.18h3.69l-6.51 20.24H201l-3.1-9.59a48.75 48.75 0 0 1-1.77-6.64c-.44 2.36-1.18 4.57-1.77 6.64l-3.24 9.59h-3.39l-6-20.21h3.69zm42.15 15.33a48 48 0 0 0 .29 4.87h-3.39l-.29-2.51a7.41 7.41 0 0 1-6.19 2.95c-4.13 0-6.19-2.95-6.19-5.75 0-4.87 4.28-7.52 12.09-7.52V28c0-1.62-.44-4.72-4.57-4.72a10.6 10.6 0 0 0-5.31 1.47l-.88-2.36a13 13 0 0 1 6.64-1.77c6.19 0 7.67 4.13 7.67 8.26l.15 7.52zM224 31c-4-.15-8.55.59-8.55 4.57a3.29 3.29 0 0 0 3.39 3.54 4.92 4.92 0 0 0 4.87-3.39 3.25 3.25 0 0 0 .15-1.18V31zm9.59-9.88L238 33c.44 1.33.88 2.95 1.33 4.13h.15a26.61 26.61 0 0 1 1.3-4.13l4-11.8h3.83l-5.46 14.31c-2.36 6-4.13 9.59-6.93 12.09a8.93 8.93 0 0 1-4.59 2.4l-.88-3.1a12 12 0 0 0 3.25-1.77 10.75 10.75 0 0 0 3.1-4.13 5.8 5.8 0 0 0 .29-.88c0-.15-.15-.44-.29-1l-7.52-18h4zM257 23.3a2.65 2.65 0 0 1-5.31 0 2.68 2.68 0 0 1 2.8-2.65A2.62 2.62 0 0 1 257 23.3zm-4.72 0a2.06 2.06 0 1 0 2.06-2.06 2 2 0 0 0-2.06 2.06zm1.62 1.33h-.59V22c.29 0 .59-.15 1-.15a5.22 5.22 0 0 1 .88.15.77.77 0 0 1 .29.59.63.63 0 0 1-.59.59c.29 0 .44.29.44.59a2.33 2.33 0 0 1 .15.59h-.59c-.15-.15-.15-.29-.15-.59s-.15-.44-.59-.44h-.29v1.33zm0-1.47h.29c.29 0 .59-.15.59-.44s-.15-.44-.59-.44h-.29z"/><path class="cls-3" d="M17 3.39L6.86 15.49v17.84l9.73-1.47a1.59 1.59 0 0 1 1.92 1.47 1.63 1.63 0 0 1-1.62 1.92L6.71 36.87v3.69l21.53 3.84V15.93zm5 24.34a6 6 0 0 1-4.42 2.51h-.29A6.2 6.2 0 0 1 12.76 28a9 9 0 0 1-2.06-5.31v-.59a8 8 0 0 1 1.77-5.31 6.79 6.79 0 0 1 4.42-2.51h.29a6.2 6.2 0 0 1 4.57 2.21 9 9 0 0 1 2.06 5.31v.59A9.17 9.17 0 0 1 22 27.73zm10.47.74v6.93l5.16-.88v-6.64zM20.72 17.4a4.61 4.61 0 0 0-3.54-1.77H17a4.29 4.29 0 0 0-3.39 1.92 7.7 7.7 0 0 0-1.47 4.57v.44a7.9 7.9 0 0 0 1.77 4.57 4.61 4.61 0 0 0 3.54 1.77h.15A4.29 4.29 0 0 0 21 27a7.7 7.7 0 0 0 1.47-4.57V22a7.17 7.17 0 0 0-1.77-4.57zm-7.23 5c-.15-2.65 1.33-5 3.24-5.16-1.18.74-1.92 2.8-1.77 5s1 4.28 2.36 4.87c-1.92.15-3.69-1.92-3.83-4.72zm26.25-3.69v6.64l4.26-.57v-6.49l-4.28.44zm0 15.34l4.26-.72v-6.49l-4.28.59z"/><path class="cls-2" d="M37.39 0H13.94L.22 16.22l4.87-.29v17.55l-3.69.59a1.69 1.69 0 0 0-1.33 2.21 1.93 1.93 0 0 0 1.77 1.33L5.09 37v4.72l23.16 4.13 18.29-4.13v-25.5l5-.44zm-4.72 19.32l5-.44v6.64l-5.16.74.15-6.93zm-26 21.24v-3.69l10-1.62a1.63 1.63 0 0 0 1.62-1.92 1.59 1.59 0 0 0-1.92-1.47l-9.66 1.47V15.49l10.18-12.1 11.2 12.69v28.46c.15-.14-21.38-3.98-21.38-3.98zm25.85-5.16v-6.93l5.16-.74v6.64zm11.36-2.06l-4.13.74v-6.65l4.25-.59v6.49zm-4.13-8v-6.61l4.25-.44v6.49z"/><path d="M21.75 16.52a6.2 6.2 0 0 0-4.57-2.21h-.29a6.23 6.23 0 0 0-4.42 2.51 9.17 9.17 0 0 0-1.77 5.31v.59A9 9 0 0 0 12.76 28a6.2 6.2 0 0 0 4.57 2.21h.29A6.23 6.23 0 0 0 22 27.73a9.17 9.17 0 0 0 1.77-5.31v-.59a9 9 0 0 0-2.06-5.31zM21 27a4.29 4.29 0 0 1-3.39 1.92h-.15a4.87 4.87 0 0 1-3.54-1.77 7.9 7.9 0 0 1-1.77-4.57v-.44a7.7 7.7 0 0 1 1.47-4.57A4.29 4.29 0 0 1 17 15.63h.15a4.87 4.87 0 0 1 3.54 1.77 7.9 7.9 0 0 1 1.8 4.6v.44A7.7 7.7 0 0 1 21 27zm-6-4.57c-.15-2.21.59-4.28 1.77-5-1.92.15-3.39 2.36-3.24 5.16s1.77 4.87 3.83 4.72c-1.36-.76-2.24-2.68-2.36-4.89z" fill="#616161"/><path class="cls-3" d="M32.67 19.32l5-.44v6.64l-5.16.74.15-6.93z"/></g></g></svg>