<svg xmlns="http://www.w3.org/2000/svg" viewBox="0 0 480 480" width="512" height="512"><path d="M199.372 154.279c0-15.464-12.536-28-28-28H82.039c-15.464 0-28 12.536-28 28v27.827h145.333v-27.827zM49.54 298.913h379.664c10.56 0 19.151-8.592 19.151-19.152v-63.856c0-10.56-8.591-19.151-19.151-19.151H49.54c-10.561 0-19.152 8.592-19.152 19.151v63.857c0 10.559 8.591 19.151 19.152 19.151z" data-original="#000000" class="active-path" data-old_color="#00aeef" fill="#00aeef"/><path d="M470 148.552c-5.523 0-10 4.478-10 10v154.447H20V45.666c0-5.522-4.477-10-10-10s-10 4.478-10 10v388.667c0 5.522 4.477 10 10 10s10-4.478 10-10v-71.334h440v71.334c0 5.522 4.477 10 10 10s10-4.478 10-10V158.552c0-5.522-4.477-10-10-10z" data-original="#000000" class="active-path" data-old_color="#00aeef" fill="#00aeef"/></svg>