<svg xmlns="http://www.w3.org/2000/svg" viewBox="0 0 512.001 512.001" width="512" height="512"><path d="M166.285 426.059H447.93a7.5 7.5 0 0 0 7.5-7.5 7.5 7.5 0 0 0-7.5-7.5H166.285a7.5 7.5 0 0 0-7.5 7.5 7.5 7.5 0 0 0 7.5 7.5zm0-251.556h24.679a7.5 7.5 0 0 0 7.5-7.5 7.5 7.5 0 0 0-7.5-7.5h-24.679a7.5 7.5 0 0 0-7.5 7.5 7.5 7.5 0 0 0 7.5 7.5zm0 62.889h24.679a7.5 7.5 0 0 0 7.5-7.5 7.5 7.5 0 0 0-7.5-7.5h-24.679a7.5 7.5 0 0 0-7.5 7.5 7.5 7.5 0 0 0 7.5 7.5zm0 62.89h24.679a7.5 7.5 0 0 0 7.5-7.5 7.5 7.5 0 0 0-7.5-7.5h-24.679a7.5 7.5 0 1 0 0 15zm0 62.889h24.679a7.5 7.5 0 0 0 7.5-7.5 7.5 7.5 0 0 0-7.5-7.5h-24.679a7.5 7.5 0 0 0 0 15zm88.749 0h156.922c7.786 0 14.12-6.334 14.12-14.121V231.592h9.371a9.65 9.65 0 0 0 9.25-6.803 9.659 9.659 0 0 0-3.732-10.866L339.012 143.28c-3.256-2.257-7.776-2.257-11.034 0l-101.953 70.643a9.657 9.657 0 0 0-3.73 10.867 9.648 9.648 0 0 0 9.249 6.801h9.371V349.05c-.001 7.787 6.333 14.121 14.119 14.121zm96.759-15h-36.596v-63.406h36.596v63.406zm59.284 0h-44.284v-64.62c0-7.601-6.184-13.785-13.785-13.785h-39.025c-7.602 0-13.785 6.184-13.785 13.785v64.621h-44.283v-116.58h155.162v116.579zm-77.582-190.465l84.984 58.886H248.511l84.984-58.886z" data-original="#000000" class="active-path" data-old_color="#00aeef" fill="#00aeef"/><path d="M504.501 137.868a7.5 7.5 0 0 0 7.5-7.5v-27.384c0-14.943-12.135-27.1-27.05-27.1H118.689v-.334c0-32.795-26.621-59.477-59.344-59.477S.001 42.755.001 75.55v234.623c0 4.142 3.357 7.5 7.5 7.5s7.5-3.358 7.5-7.5V75.55c0-24.524 19.893-44.477 44.344-44.477s44.344 19.952 44.344 44.477v321.378a61.164 61.164 0 0 0-3.242-3.369c-10.331-9.946-23.547-15.68-37.674-16.474-.291-.017-.586-.02-.878-.032a60.89 60.89 0 0 0-2.224-.061c-.109-.001-.216-.009-.326-.009-.316 0-.627.021-.943.026-.454.007-.906.001-1.362.018-.183.007-.362.025-.545.034-.402.019-.801.048-1.202.075a58.31 58.31 0 0 0-1.88.155 57.532 57.532 0 0 0-2.984.379c-.455.069-.909.14-1.36.219-.497.088-.991.187-1.484.287-.52.105-1.039.209-1.554.328-.344.08-.683.171-1.025.256-11.777 2.941-22.181 9.396-30.006 18.214V340.59c0-4.142-3.357-7.5-7.5-7.5s-7.5 3.358-7.5 7.5v95.865c0 .093.01.183.014.275.061 15.402 5.904 29.884 16.626 41.019 11.287 11.723 26.453 18.179 42.704 18.179h425.607c14.915 0 27.05-12.157 27.05-27.1v-307.22c0-4.142-3.357-7.5-7.5-7.5s-7.5 3.358-7.5 7.5v307.219c0 6.672-5.405 12.1-12.05 12.1H59.345c-12.137 0-23.465-4.824-31.899-13.583-8.332-8.654-12.722-20.02-12.415-32.056.007-.254.008-.509.019-.763.018-.436.05-.869.081-1.302.022-.307.042-.616.07-.921.038-.414.088-.825.137-1.236.037-.309.074-.618.118-.925.06-.423.13-.844.202-1.264.048-.278.096-.557.149-.834.087-.454.183-.905.284-1.354.051-.226.102-.452.156-.677a43.994 43.994 0 0 1 .521-1.96c.162-.556.333-1.109.516-1.656l.078-.231c4.214-12.365 13.747-22.331 25.817-27.11l.175-.069c.537-.21 1.081-.407 1.628-.596l.463-.158a43.265 43.265 0 0 1 2.143-.652 42.827 42.827 0 0 1 2.188-.545 47.11 47.11 0 0 1 1.069-.226c.38-.074.762-.141 1.145-.206.315-.053.631-.106.948-.153.422-.061.846-.113 1.271-.162.295-.034.59-.071.887-.099.434-.042.871-.071 1.308-.1.304-.02.606-.043.912-.057.401-.018.804-.023 1.208-.031.358-.006.717-.016 1.074-.015.44.003.877.018 1.313.033.302.01.604.017.905.033.542.03 1.081.074 1.618.124.181.016.364.029.544.047a43.487 43.487 0 0 1 2.115.271c19.779 3.042 35.294 19.238 37.36 39.374.153 1.514.231 3.044.231 4.589 0 .057.011.111.013.167a7.511 7.511 0 0 0 .284 1.882c.02.069.035.14.057.209a7.303 7.303 0 0 0 .457 1.107c.115.228.24.45.377.664.043.067.083.135.127.201a7.503 7.503 0 0 0 .746.915 7.603 7.603 0 0 0 .757.701 7.44 7.44 0 0 0 .933.636c.277.161.562.309.86.434.008.003.015.008.023.012.028.012.057.017.085.028.275.11.559.201.85.279.081.021.161.043.242.062.311.072.627.13.952.162.05.005.099.004.149.007.196.016.393.03.594.03.081 0 .159-.01.239-.012a7.62 7.62 0 0 0 1.182-.126c.017-.003.035-.004.052-.008a7.514 7.514 0 0 0 1.14-.331c.294-.109.581-.233.856-.377l.061-.029c.292-.156.569-.334.836-.526.06-.043.119-.088.178-.133.265-.203.522-.416.757-.652l.003-.003c.018-.018.033-.038.051-.057.153-.156.301-.317.44-.486.045-.055.083-.113.126-.169.107-.138.214-.275.311-.42.034-.051.062-.105.095-.156.099-.156.197-.312.284-.475.019-.036.035-.074.053-.111.094-.181.183-.365.262-.554.01-.024.017-.049.027-.074.081-.202.157-.406.221-.616l.021-.081c.06-.206.115-.415.158-.628.013-.063.018-.128.029-.192.031-.177.062-.354.08-.536.025-.248.038-.498.038-.749V90.883h366.261c6.645 0 12.05 5.428 12.05 12.1v27.384a7.5 7.5 0 0 0 7.5 7.501z" data-original="#000000" class="active-path" data-old_color="#00aeef" fill="#00aeef"/></svg>