<svg xmlns="http://www.w3.org/2000/svg" viewBox="0 0 511.995 511.995"><circle cx="255.997" cy="255.997" r="255.997" fill="#3a99d7"/><path d="M300.549 508.102l-148.67-146.778 21.96-20.641-38.415-20.412c-5.103-72.758 5.217-144.885 86.289-149.93v17.258l68.515-50.684 5.791 5.963 7.397-5.446-34.802-28.266 98.845 49.537 140.929 139.954C490.5 405.185 406.79 489.467 300.492 508.102h.057z" fill="#2682bf"/><circle cx="255.997" cy="255.997" r="255.997" fill="#00cc96"/><path d="M507.757 302.556c-18.978 103.318-99.992 184.905-202.965 204.743l-48.334-48.333 1.147-22.475-68.228-68.228 77.861-119.715 9.117-177.336 231.344 231.343h.058z" fill="#07b587"/><path d="M292.923 278.475s35.089 33.369 36.35 52.518-6.708 37.153-6.708 37.153-33.427-22.819-41.568-24.94c4.759-23.909 11.925-64.788 11.925-64.788v.057z" fill="#c94545"/><path d="M219.077 278.589s-35.089 33.369-36.35 52.518 6.708 37.153 6.708 37.153 33.427-22.819 41.568-24.94c-4.759-23.909-11.925-64.788-11.925-64.788l-.001.057z" fill="#e84f4f"/><path d="M253.764 53.723c-13.015 10.837-52.232 46.728-52.232 86.346 0 47.53 30.101 212.311 30.101 212.311h10.033l1.835 6.25h24.768l1.835-6.25h9.919s30.101-164.78 30.101-212.311c0-39.618-39.217-75.509-52.232-86.346 0-1.032-4.186-.86-4.186 0h.058z" fill="#006775"/><path d="M256.287 358.63h11.983l1.835-6.307h9.919s30.101-164.78 30.101-212.311c0-39.618-39.217-75.509-52.232-86.346 0-.516-1.09-.745-2.178-.688l.572 305.652z" fill="#004f59"/><path d="M247.17 356.508s-13.302 2.466-9.346 30.388c3.956 27.979 18.691 69.662 18.691 72.07 0-2.466 14.735-44.148 18.691-72.07 3.956-27.922-9.346-30.388-9.346-30.388l-9.346-.516-9.344.516z" fill="#fff"/><path d="M256.459 459.022c0-2.466 14.735-44.148 18.691-72.07 3.956-27.979-9.346-30.388-9.346-30.388l-9.346-.516h-.172l.173 102.974z" fill="#ccc"/><path d="M253.764 53.723c-7.224 6.02-22.418 19.666-34.573 37.382 9.919 4.53 22.705 7.224 36.695 7.224s26.775-2.695 36.695-7.224c-12.155-17.717-27.349-31.362-34.573-37.382 0-.401-.745-.63-1.605-.688h-.804c-.975.057-1.892.286-1.892.688h.057z" fill="#e84f4f"/><path d="M255.828 98.271c13.99 0 26.775-2.695 36.695-7.224-12.154-17.717-27.349-31.362-34.573-37.382 0-.401-.745-.63-1.605-.688h-.69l.115 45.295h.058z" fill="#c94545"/><g fill="#e84f4f"><path d="M252.502 373.02s-5.676 1.433-4.013 17.659c1.72 16.226 8.027 40.421 8.027 41.855 0-1.433 6.307-25.629 8.027-41.855s-4.013-17.659-4.013-17.659l-4.013-.286-4.015.286z"/><path d="M256.459 432.133l.057.401c0-1.433 6.307-25.629 7.97-41.855 1.72-16.226-4.013-17.659-4.013-17.659l-4.013-.286h-.172l.115 59.399h.056z"/></g><path d="M255.828 148.153c17.659 0 31.993 14.277 31.993 31.821 0 17.602-14.334 31.821-31.993 31.821s-31.936-14.277-31.936-31.821c.001-17.602 14.335-31.821 31.936-31.821z" fill="#fff"/><path d="M255.885 148.153c17.602.057 31.879 14.277 31.879 31.821S273.545 211.68 256 211.794l-.115-63.641z" fill="#ccc"/><path d="M255.828 157.671c12.327 0 22.361 9.976 22.361 22.246s-9.976 22.246-22.361 22.246c-12.327 0-22.361-9.976-22.361-22.246s10.034-22.246 22.361-22.246z" fill="#e84f4f"/><path d="M255.885 157.671c12.327.057 22.246 9.976 22.246 22.246 0 12.213-9.919 22.189-22.189 22.246l-.057-44.492z" fill="#c94545"/><path d="M255.828 168.105c6.593 0 11.925 5.332 11.925 11.868s-5.332 11.868-11.925 11.868c-6.593 0-11.925-5.332-11.925-11.868-.001-6.535 5.331-11.868 11.925-11.868z" fill="#fff"/><path d="M255.999 191.842l-.057-23.737c6.536.057 11.811 5.332 11.811 11.868.001 6.48-5.216 11.755-11.754 11.869z" fill="#ccc"/></svg>