<svg xmlns="http://www.w3.org/2000/svg" width="800" height="800"><path fill="#103B9B" d="M644.161 487.021v-1c0-6.563-5.34-11.903-11.903-11.903H24.807V325.882h750.387v148.236h-91.322c-6.563 0-11.903 5.34-11.903 11.903v1h-27.808z"/><path fill="#103B9B" d="M683.871 473.118h90.322V326.882H25.807v146.236h606.451c7.128 0 12.903 5.777 12.903 12.903h25.807c0-7.125 5.775-12.903 12.903-12.903z"/><path fill="#FFF" d="M25.807 154.839h748.387v146.236H25.807z"/><path fill="#ED1F34" d="M24.807 646.161V497.925h607.451c6.563 0 11.903-5.34 11.903-11.903v-1h27.807v1c0 6.563 5.34 11.903 11.903 11.903h91.322v148.236H24.807z"/><path fill="#ED1F34" d="M683.871 498.925c-7.128 0-12.903-5.777-12.903-12.903h-25.807c0 7.126-5.775 12.903-12.903 12.903H25.807v146.236h748.387V498.925h-90.323z"/><path d="M787.097 129.032H12.903C5.775 129.032 0 134.81 0 141.936v516.129c0 7.126 5.775 12.903 12.903 12.903h774.193c7.128 0 12.903-5.777 12.903-12.903V141.936c.001-7.126-5.774-12.904-12.902-12.904zm-12.904 25.807v146.236H25.807V154.839h748.386zM25.807 645.161V498.925h606.451c7.128 0 12.903-5.777 12.903-12.903s-5.775-12.903-12.903-12.903H25.807V326.882h748.387v146.236h-90.322c-7.128 0-12.903 5.777-12.903 12.903s5.775 12.903 12.903 12.903h90.322V645.16H25.807z"/></svg>