<svg xmlns="http://www.w3.org/2000/svg" viewBox="0 0 58.981 58.981"><path d="M35.89 58H10.701a3.405 3.405 0 0 1-3.405-3.405V3.405A3.406 3.406 0 0 1 10.701 0H35.89a3.405 3.405 0 0 1 3.405 3.405v51.189A3.405 3.405 0 0 1 35.89 58z" fill="#545e73"/><path fill="#8697cb" d="M7.296 6h32v40h-32z"/><circle cx="23.296" cy="52" r="3" fill="#323a45"/><path d="M23.296 4h-4a1 1 0 1 1 0-2h4a1 1 0 1 1 0 2zm4 0h-1a1 1 0 1 1 0-2h1a1 1 0 1 1 0 2z" fill="#323a45"/><circle cx="39.686" cy="46.981" r="12" fill="#26b999"/><path d="M46.257 41.161a.999.999 0 0 0-1.392.25l-5.596 8.04-3.949-3.242a.999.999 0 1 0-1.268 1.546l4.786 3.929a1.003 1.003 0 0 0 1.455-.201l6.214-8.929a1.002 1.002 0 0 0-.25-1.393z" fill="#fff"/></svg>