<svg xmlns="http://www.w3.org/2000/svg" width="800" height="800"><path fill="#FFE000" d="M644.161 530.032v-1c0-6.563-5.34-11.903-11.903-11.903H24.807V282.871h750.387v234.258h-91.322c-6.563 0-11.903 5.34-11.903 11.903v1h-27.808z"/><path fill="#FFE000" d="M683.871 516.129h90.322V283.871H25.807v232.258h606.451c7.126 0 12.903 5.777 12.903 12.903h25.807c0-7.126 5.777-12.903 12.903-12.903z"/><path fill="#ED1F34" d="M24.807 153.839h750.387v105.226H24.807z"/><path fill="#ED1F34" d="M25.807 154.839h748.387v103.226H25.807zm-1 491.322V540.936h607.451c6.563 0 11.903-5.34 11.903-11.903v-1h27.807v1c0 6.563 5.34 11.903 11.903 11.903h91.322v105.226H24.807z"/><path fill="#ED1F34" d="M683.871 541.936c-7.126 0-12.903-5.777-12.903-12.903h-25.807c0 7.126-5.777 12.903-12.903 12.903H25.807v103.226h748.387V541.936h-90.323z"/><path d="M787.097 129.032H12.903C5.777 129.032 0 134.81 0 141.936v516.129c0 7.126 5.777 12.903 12.903 12.903h774.193c7.126 0 12.903-5.777 12.903-12.903V141.936c.001-7.126-5.776-12.904-12.902-12.904zm-12.904 25.807v103.226H25.807V154.839h748.386zM25.807 645.161V541.936h606.451c7.126 0 12.903-5.777 12.903-12.903s-5.777-12.903-12.903-12.903H25.807V283.871h748.387v232.258h-90.322c-7.126 0-12.903 5.777-12.903 12.903s5.777 12.903 12.903 12.903h90.322v103.226H25.807z"/></svg>