<svg xmlns="http://www.w3.org/2000/svg" width="800" height="800"><path fill="#ED1F34" d="M24.807 646.161V153.839h659.064c6.563 0 11.903-5.34 11.903-11.903v-1h27.807v1c0 6.563 5.34 11.903 11.903 11.903h39.709v492.322H24.807zm246.161-430.968c-101.903 0-184.807 82.904-184.807 184.807 0 101.902 82.904 184.807 184.807 184.807 64.296 0 122.991-32.656 157.01-87.354 3.181-5.111 2.038-11.805-2.658-15.569a11.944 11.944 0 0 0-7.447-2.619 11.83 11.83 0 0 0-8.329 3.399c-21.767 21.315-50.512 33.055-80.94 33.055-54.694 0-102.363-38.819-113.346-92.305-1.13-5.501-6.027-9.493-11.644-9.493-.604 0-1.215.047-1.817.139l-1.04.16-.106-1.047a130.565 130.565 0 0 1 0-26.339l.106-1.047 1.04.16c.6.092 1.208.138 1.811.138 5.62 0 10.52-3.994 11.65-9.495 10.983-53.485 58.652-92.305 113.346-92.305 30.43 0 59.175 11.739 80.94 33.055a11.84 11.84 0 0 0 8.332 3.399c2.696 0 5.341-.93 7.444-2.618 4.695-3.767 5.838-10.461 2.658-15.571-34.016-54.701-92.711-87.357-157.01-87.357zm215.95 99.784c-1.249 0-2.486.196-3.68.584-4.655 1.513-7.954 5.815-8.207 10.707l-2.383 46.105-43.112 16.512c-4.572 1.75-7.645 6.218-7.645 11.116 0 4.897 3.072 9.365 7.645 11.116l43.112 16.511 2.383 46.105c.251 4.891 3.55 9.193 8.207 10.706 1.193.389 2.431.585 3.678.585a11.86 11.86 0 0 0 9.258-4.421l29.027-35.898 44.585 11.981a11.89 11.89 0 0 0 3.087.408 11.94 11.94 0 0 0 9.632-4.907c2.878-3.962 3.018-9.383.348-13.487L557.678 400l25.175-38.699c2.669-4.105 2.529-9.526-.348-13.487a11.937 11.937 0 0 0-9.63-4.909c-1.041 0-2.08.138-3.089.409l-44.585 11.981-29.027-35.898a11.85 11.85 0 0 0-9.256-4.42z"/><path fill="#ED1F34" d="M683.871 154.839H25.807v490.322h748.387V154.839h-38.709c-7.127 0-12.903-5.777-12.903-12.903h-25.807c-.001 7.126-5.778 12.903-12.904 12.903zM428.827 497.98c-34.202 54.993-93.214 87.826-157.859 87.826-102.453 0-185.807-83.354-185.807-185.807s83.354-185.807 185.807-185.807c64.646 0 123.659 32.831 157.859 87.826a12.902 12.902 0 0 1-19.985 16.032c-21.577-21.132-50.074-32.769-80.24-32.769-54.222 0-101.479 38.484-112.367 91.506-1.39 6.765-7.847 11.178-14.591 10.144a129.094 129.094 0 0 0-.661 13.068c0 4.412.224 8.772.661 13.068 6.754-1.036 13.201 3.377 14.591 10.142 10.888 53.022 58.145 91.506 112.367 91.506 30.166 0 58.663-11.639 80.24-32.769 4.664-4.571 12.007-4.933 17.103-.847a12.903 12.903 0 0 1 2.882 16.881zm154.863-59.826a12.905 12.905 0 0 1-14.164 19.497l-43.957-11.813-28.618 35.393a12.908 12.908 0 0 1-10.035 4.792c-1.33 0-2.675-.207-3.986-.634a12.898 12.898 0 0 1-8.897-11.605l-2.349-45.456-42.505-16.278a12.904 12.904 0 1 1 0-24.1l42.505-16.279 2.349-45.456a12.904 12.904 0 0 1 22.918-7.448l28.618 35.393 43.957-11.813c5.161-1.388 10.646.552 13.787 4.877s3.291 10.139.377 14.621L558.871 400l24.819 38.154z"/><path d="M787.097 129.032h-51.612c-7.127 0-12.903 5.777-12.903 12.903s5.776 12.903 12.903 12.903h38.709V645.16H25.807V154.839h658.064c7.126 0 12.903-5.777 12.903-12.903s-5.777-12.903-12.903-12.903H12.903C5.777 129.032 0 134.81 0 141.936v516.129c0 7.126 5.777 12.903 12.903 12.903h774.193c7.126 0 12.903-5.777 12.903-12.903V141.936c.001-7.126-5.776-12.904-12.902-12.904z"/><path fill="#FFF" d="M190.956 371.598c13.342-64.967 71.231-112.121 137.647-112.121 7.506 0 14.928.588 22.212 1.743-23.83-13.729-51.199-21.22-79.847-21.22-88.224 0-160 71.776-160 160s71.776 160 160 160c28.648 0 56.016-7.491 79.847-21.22a141.888 141.888 0 0 1-22.212 1.743c-66.416 0-124.305-47.154-137.647-112.121-1.433-6.981 3.063-13.801 10.044-15.234.215-.043.43-.064.645-.098-.437-4.298-.661-8.657-.661-13.068s.224-8.772.661-13.068c-.215-.035-.43-.055-.645-.1-6.982-1.435-11.478-8.255-10.044-15.236zm319.822 5.317l-12.714-15.723-1.043 20.192a12.901 12.901 0 0 1-8.27 11.384l-18.882 7.233 18.882 7.232a12.902 12.902 0 0 1 8.27 11.385l1.043 20.192 12.714-15.724a12.912 12.912 0 0 1 13.382-4.348l19.528 5.248-11.026-16.95a12.909 12.909 0 0 1 0-14.071l11.026-16.95-19.528 5.248a12.919 12.919 0 0 1-13.382-4.348z"/><path d="M583.312 347.226a12.901 12.901 0 0 0-13.787-4.877l-43.957 11.812-28.618-35.393a12.902 12.902 0 1 0-22.918 7.448l-2.349 45.456-42.505 16.279a12.904 12.904 0 0 0 0 24.1l42.505 16.278 2.349 45.456a12.903 12.903 0 0 0 22.918 7.447l28.618-35.393 43.957 11.813a12.905 12.905 0 0 0 14.164-19.497L558.871 400l24.817-38.154a12.903 12.903 0 0 0-.376-14.62zm-50.65 45.739a12.91 12.91 0 0 0 0 14.072l11.026 16.949-19.528-5.248a12.91 12.91 0 0 0-13.382 4.349l-12.714 15.723-1.043-20.192a12.904 12.904 0 0 0-8.27-11.385L469.87 400l18.882-7.233a12.901 12.901 0 0 0 8.27-11.384l1.043-20.193 12.714 15.723a12.919 12.919 0 0 0 13.382 4.348l19.528-5.248-11.027 16.952z"/><path d="M425.945 481.102a12.9 12.9 0 0 0-17.103.846c-21.577 21.132-50.074 32.77-80.24 32.77-54.222 0-101.479-38.484-112.367-91.507-1.389-6.765-7.837-11.177-14.591-10.142-.215.033-.43.055-.645.098-6.981 1.434-11.477 8.255-10.044 15.235 13.342 64.967 71.231 112.12 137.647 112.12 7.506 0 14.928-.589 22.212-1.743-23.831 13.728-51.198 21.22-79.847 21.22-88.224 0-160-71.776-160-160s71.776-160 160-160c28.648 0 56.018 7.491 79.847 21.22a141.786 141.786 0 0 0-22.212-1.743c-66.416 0-124.305 47.153-137.647 112.12-1.433 6.981 3.063 13.801 10.044 15.234.215.045.43.065.645.1 6.744 1.034 13.201-3.377 14.591-10.144 10.888-53.022 58.145-91.506 112.367-91.506 30.166 0 58.663 11.637 80.24 32.769a12.902 12.902 0 1 0 19.985-16.032c-34.2-54.992-93.214-87.823-157.859-87.823-102.453 0-185.807 83.354-185.807 185.807s83.354 185.807 185.807 185.807c64.646 0 123.657-32.833 157.859-87.826a12.901 12.901 0 0 0-2.882-16.88z"/></svg>